<svg width="26" height="20" viewBox="0 0 26 20" fill="none" xmlns="http://www.w3.org/2000/svg">
<path d="M21.1016 1.60156C20.7344 1.23438 20.7344 0.640627 21.1016 0.277346C21.4687 -0.0859356 22.0625 -0.0898418 22.4258 0.277346L24.9258 2.77735C25.1016 2.95313 25.1992 3.19141 25.1992 3.44141C25.1992 3.69141 25.1016 3.92969 24.9258 4.10547L22.4258 6.60547C22.0586 6.97266 21.4648 6.97266 21.1016 6.60547C20.7383 6.23828 20.7344 5.64453 21.1016 5.28125L22 4.38281L15.2031 4.375C14.6836 4.375 14.2656 3.95703 14.2656 3.4375C14.2656 2.91797 14.6836 2.5 15.2031 2.5H22.0039L21.1016 1.60156ZM4.30469 14.7266L3.40625 15.625H10.2031C10.7227 15.625 11.1406 16.043 11.1406 16.5625C11.1406 17.082 10.7227 17.5 10.2031 17.5H3.40234L4.30078 18.3984C4.66797 18.7656 4.66797 19.3594 4.30078 19.7227C3.93359 20.0859 3.33984 20.0898 2.97656 19.7227L0.476562 17.2266C0.300781 17.0508 0.203125 16.8125 0.203125 16.5625C0.203125 16.3125 0.300781 16.0742 0.476562 15.8984L2.97656 13.3984C3.34375 13.0313 3.9375 13.0313 4.30078 13.3984C4.66406 13.7656 4.66797 14.3594 4.30078 14.7227L4.30469 14.7266ZM3.95312 2.5H13.4023C13.2578 2.78125 13.1719 3.09766 13.1719 3.4375C13.1719 4.5586 14.082 5.46875 15.2031 5.46875H19.7891C19.6328 6.13281 19.8125 6.85547 20.3281 7.375C21.1211 8.16797 22.4063 8.16797 23.1992 7.375L23.9531 6.6211V15C23.9531 16.3789 22.832 17.5 21.4531 17.5H12.0039C12.1484 17.2188 12.2344 16.9023 12.2344 16.5625C12.2344 15.4414 11.3242 14.5313 10.2031 14.5313H5.61719C5.77344 13.8672 5.59375 13.1445 5.07813 12.625C4.28516 11.832 3 11.832 2.20703 12.625L1.45312 13.3789V5C1.45312 3.6211 2.57422 2.5 3.95312 2.5ZM6.45312 5H3.95312V7.5C5.33203 7.5 6.45312 6.37891 6.45312 5ZM21.4531 12.5C20.0742 12.5 18.9531 13.6211 18.9531 15H21.4531V12.5ZM12.7031 13.75C13.6977 13.75 14.6515 13.3549 15.3548 12.6517C16.058 11.9484 16.4531 10.9946 16.4531 10C16.4531 9.00544 16.058 8.05161 15.3548 7.34835C14.6515 6.64509 13.6977 6.25 12.7031 6.25C11.7086 6.25 10.7547 6.64509 10.0515 7.34835C9.34821 8.05161 8.95312 9.00544 8.95312 10C8.95312 10.9946 9.34821 11.9484 10.0515 12.6517C10.7547 13.3549 11.7086 13.75 12.7031 13.75Z" fill="#F97316"/>
</svg>
