<svg width="18" height="20" viewBox="0 0 18 20" fill="none" xmlns="http://www.w3.org/2000/svg">
<path d="M5.76562 5.625V7.5H12.0156V5.625C12.0156 3.89844 10.6172 2.5 8.89062 2.5C7.16406 2.5 5.76562 3.89844 5.76562 5.625ZM3.26562 7.5V5.625C3.26562 2.51953 5.78516 0 8.89062 0C11.9961 0 14.5156 2.51953 14.5156 5.625V7.5H15.1406C16.5195 7.5 17.6406 8.62109 17.6406 10V17.5C17.6406 18.8789 16.5195 20 15.1406 20H2.64062C1.26172 20 0.140625 18.8789 0.140625 17.5V10C0.140625 8.62109 1.26172 7.5 2.64062 7.5H3.26562Z" fill="#F97316"/>
</svg>
