<svg width="23" height="20" viewBox="0 0 23 20" fill="none" xmlns="http://www.w3.org/2000/svg">
<path d="M22.5938 20H0.09375V0H22.5938V20Z" stroke="#E5E7EB"/>
<g clip-path="url(#clip0_90_3079)">
<path d="M21.4845 4.05469L19.2463 0.511719C19.047 0.195312 18.6916 0 18.3127 0H4.37516C3.99625 0 3.64078 0.195312 3.44156 0.511719L1.19938 4.05469C0.0431265 5.88281 1.06656 8.42578 3.22672 8.71875C3.38297 8.73828 3.54313 8.75 3.69938 8.75C4.71891 8.75 5.62516 8.30469 6.24625 7.61719C6.86735 8.30469 7.7736 8.75 8.79313 8.75C9.81266 8.75 10.7189 8.30469 11.34 7.61719C11.9611 8.30469 12.8673 8.75 13.8869 8.75C14.9103 8.75 15.8127 8.30469 16.4338 7.61719C17.0588 8.30469 17.9611 8.75 18.9806 8.75C19.1408 8.75 19.297 8.73828 19.4533 8.71875C21.6213 8.42969 22.6486 5.88672 21.4884 4.05469H21.4845ZM19.6134 9.95703H19.6095C19.4025 9.98437 19.1916 10 18.9767 10C18.4923 10 18.0275 9.92578 17.5939 9.79297V15H5.09391V9.78906C4.65641 9.92578 4.18766 10 3.70328 10C3.48844 10 3.2736 9.98437 3.06656 9.95703H3.06266C2.9025 9.93359 2.74625 9.90625 2.59391 9.86719V15V17.5C2.59391 18.8789 3.715 20 5.09391 20H17.5939C18.9728 20 20.0939 18.8789 20.0939 17.5V15V9.86719C19.9377 9.90625 19.7814 9.9375 19.6134 9.95703Z" fill="#F97316"/>
</g>
<defs>
<clipPath id="clip0_90_3079">
<path d="M0.09375 0H22.5938V20H0.09375V0Z" fill="white"/>
</clipPath>
</defs>
</svg>
