<svg width="18" height="20" viewBox="0 0 18 20" fill="none" xmlns="http://www.w3.org/2000/svg">
<g clip-path="url(#clip0_90_3134)">
<path d="M9.21898 0C8.52757 0 7.96898 0.558594 7.96898 1.25V2C5.11742 2.57813 2.96898 5.10156 2.96898 8.125V8.85938C2.96898 10.6953 2.2932 12.4687 1.07445 13.8437L0.785385 14.168C0.45726 14.5352 0.379135 15.0625 0.578354 15.5117C0.777573 15.9609 1.22679 16.25 1.71898 16.25H16.719C17.2112 16.25 17.6565 15.9609 17.8596 15.5117C18.0627 15.0625 17.9807 14.5352 17.6526 14.168L17.3635 13.8437C16.1448 12.4687 15.469 10.6992 15.469 8.85938V8.125C15.469 5.10156 13.3205 2.57813 10.469 2V1.25C10.469 0.558594 9.91038 0 9.21898 0ZM10.9885 19.2695C11.4573 18.8008 11.719 18.1641 11.719 17.5H9.21898H6.71898C6.71898 18.1641 6.9807 18.8008 7.44945 19.2695C7.9182 19.7383 8.55492 20 9.21898 20C9.88304 20 10.5198 19.7383 10.9885 19.2695Z" fill="#F97316"/>
</g>
<defs>
<clipPath id="clip0_90_3134">
<path d="M0.46875 0H17.9688V20H0.46875V0Z" fill="white"/>
</clipPath>
</defs>
</svg>
