<svg width="16" height="20" viewBox="0 0 16 20" fill="none" xmlns="http://www.w3.org/2000/svg">
<path d="M9.08203 19.5C11.0859 16.9922 15.6562 10.9141 15.6562 7.5C15.6562 3.35938 12.2969 0 8.15625 0C4.01562 0 0.65625 3.35938 0.65625 7.5C0.65625 10.9141 5.22656 16.9922 7.23047 19.5C7.71094 20.0977 8.60156 20.0977 9.08203 19.5ZM8.15625 5C8.81929 5 9.45518 5.26339 9.92402 5.73223C10.3929 6.20107 10.6562 6.83696 10.6562 7.5C10.6562 8.16304 10.3929 8.79893 9.92402 9.26777C9.45518 9.73661 8.81929 10 8.15625 10C7.49321 10 6.85732 9.73661 6.38848 9.26777C5.91964 8.79893 5.65625 8.16304 5.65625 7.5C5.65625 6.83696 5.91964 6.20107 6.38848 5.73223C6.85732 5.26339 7.49321 5 8.15625 5Z" fill="#F97316"/>
</svg>
