<svg width="21" height="20" viewBox="0 0 21 20" fill="none" xmlns="http://www.w3.org/2000/svg">
<path d="M11.6443 0.703125C11.4373 0.273438 10.9998 0 10.5193 0C10.0388 0 9.60523 0.273438 9.39429 0.703125L6.88258 5.87109L1.2732 6.69922C0.804451 6.76953 0.413826 7.09766 0.269295 7.54687C0.124763 7.99609 0.241951 8.49219 0.577888 8.82422L4.6482 12.8516L3.68726 18.543C3.60914 19.0117 3.80445 19.4883 4.19117 19.7656C4.57789 20.043 5.08961 20.0781 5.51148 19.8555L10.5232 17.1797L15.5349 19.8555C15.9568 20.0781 16.4685 20.0469 16.8552 19.7656C17.242 19.4844 17.4373 19.0117 17.3591 18.543L16.3943 12.8516L20.4646 8.82422C20.8005 8.49219 20.9216 7.99609 20.7732 7.54687C20.6248 7.09766 20.238 6.76953 19.7693 6.69922L14.156 5.87109L11.6443 0.703125Z" fill="#F97316"/>
</svg>
